<mxfile host="app.diagrams.net" modified="2020-12-19T06:17:57.327Z" agent="5.0 (Macintosh; Intel Mac OS X 10_14_6) AppleWebKit/537.36 (KHTML, like Gecko) Chrome/87.0.4280.88 Safari/537.36" etag="YyEId4gp6c_ZhE3UI9gF" version="14.0.4" type="github">
  <diagram id="AMdhsoNa7M_U-urVTw4g" name="Page-1">
    <mxGraphModel dx="946" dy="526" grid="1" gridSize="10" guides="1" tooltips="1" connect="1" arrows="1" fold="1" page="1" pageScale="1" pageWidth="827" pageHeight="1169" math="0" shadow="0">
      <root>
        <mxCell id="0" />
        <mxCell id="1" parent="0" />
        <mxCell id="SXtD7Fwj44cU33wYY_Ef-1" value="RAM访问控制&lt;br&gt;（核心数仓）" style="rounded=0;whiteSpace=wrap;html=1;" parent="1" vertex="1">
          <mxGeometry x="210" y="320" width="130" height="40" as="geometry" />
        </mxCell>
        <mxCell id="SXtD7Fwj44cU33wYY_Ef-2" value="EMR执行引擎访问控制&lt;br&gt;（核心数仓）" style="rounded=0;whiteSpace=wrap;html=1;" parent="1" vertex="1">
          <mxGeometry x="210" y="250" width="130" height="40" as="geometry" />
        </mxCell>
        <mxCell id="SXtD7Fwj44cU33wYY_Ef-3" value="交互式分析访问控制&lt;br&gt;（核心数仓）" style="rounded=0;whiteSpace=wrap;html=1;" parent="1" vertex="1">
          <mxGeometry x="210" y="180" width="130" height="40" as="geometry" />
        </mxCell>
        <mxCell id="SXtD7Fwj44cU33wYY_Ef-4" value="RAM访问控制&lt;br&gt;（风控）" style="rounded=0;whiteSpace=wrap;html=1;" parent="1" vertex="1">
          <mxGeometry x="350" y="320" width="130" height="40" as="geometry" />
        </mxCell>
        <mxCell id="SXtD7Fwj44cU33wYY_Ef-5" value="RAM访问控制&lt;br&gt;（商务）" style="rounded=0;whiteSpace=wrap;html=1;" parent="1" vertex="1">
          <mxGeometry x="490" y="320" width="130" height="40" as="geometry" />
        </mxCell>
        <mxCell id="SXtD7Fwj44cU33wYY_Ef-6" value="RAM访问控制&lt;br&gt;（产品）" style="rounded=0;whiteSpace=wrap;html=1;" parent="1" vertex="1">
          <mxGeometry x="630" y="320" width="130" height="40" as="geometry" />
        </mxCell>
        <mxCell id="aExN4UakOXG-nf2X88gO-1" value="EMR执行引擎访问控制&lt;br&gt;（风控）" style="rounded=0;whiteSpace=wrap;html=1;" vertex="1" parent="1">
          <mxGeometry x="350" y="250" width="130" height="40" as="geometry" />
        </mxCell>
        <mxCell id="aExN4UakOXG-nf2X88gO-2" value="交互式分析访问控制&lt;br&gt;（风控）" style="rounded=0;whiteSpace=wrap;html=1;" vertex="1" parent="1">
          <mxGeometry x="350" y="180" width="130" height="40" as="geometry" />
        </mxCell>
        <mxCell id="aExN4UakOXG-nf2X88gO-3" value="EMR执行引擎访问控制&lt;br&gt;（商务）" style="rounded=0;whiteSpace=wrap;html=1;" vertex="1" parent="1">
          <mxGeometry x="490" y="250" width="130" height="40" as="geometry" />
        </mxCell>
        <mxCell id="aExN4UakOXG-nf2X88gO-4" value="交互式分析访问控制&lt;br&gt;（商务）" style="rounded=0;whiteSpace=wrap;html=1;" vertex="1" parent="1">
          <mxGeometry x="490" y="180" width="130" height="40" as="geometry" />
        </mxCell>
        <mxCell id="aExN4UakOXG-nf2X88gO-6" value="EMR执行引擎访问控制&lt;br&gt;（产品）" style="rounded=0;whiteSpace=wrap;html=1;" vertex="1" parent="1">
          <mxGeometry x="630" y="250" width="130" height="40" as="geometry" />
        </mxCell>
        <mxCell id="aExN4UakOXG-nf2X88gO-7" value="交互式分析访问控制&lt;br&gt;（产品）" style="rounded=0;whiteSpace=wrap;html=1;" vertex="1" parent="1">
          <mxGeometry x="630" y="180" width="130" height="40" as="geometry" />
        </mxCell>
      </root>
    </mxGraphModel>
  </diagram>
</mxfile>
